<svg version="1.1" id="Layer_1" xmlns="http://www.w3.org/2000/svg" xmlns:xlink="http://www.w3.org/1999/xlink" x="0px" y="0px"
	 width="100%" viewBox="0 0 1024 1024" enable-background="new 0 0 1024 1024" xml:space="preserve">
<path fill="#1D2331" opacity="1.000000" stroke="none" 
	d="
M570.000000,1025.000000 
	C380.000000,1025.000000 190.500000,1025.000000 1.000000,1025.000000 
	C1.000000,683.666687 1.000000,342.333344 1.000000,1.000000 
	C342.333344,1.000000 683.666687,1.000000 1025.000000,1.000000 
	C1025.000000,342.333344 1025.000000,683.666687 1025.000000,1025.000000 
	C873.500000,1025.000000 722.000000,1025.000000 570.000000,1025.000000 
M625.854553,475.472443 
	C625.570923,475.326233 625.287292,475.180054 624.464844,474.566742 
	C622.333008,470.671722 620.201172,466.776703 617.944336,462.208160 
	C616.396973,459.779541 614.849548,457.350922 613.158325,454.305115 
	C612.838013,454.071838 612.517761,453.838531 612.452576,453.711609 
	C612.452576,453.711609 612.551514,453.453552 612.293884,452.824280 
	C609.250916,447.799591 606.207947,442.774902 603.022827,437.101440 
	C602.416626,436.186981 601.810425,435.272522 601.277954,434.118103 
	C601.277954,434.118103 601.052612,434.007721 600.936096,433.306244 
	C595.342468,423.921906 589.748840,414.537567 584.306091,405.406311 
	C589.570312,393.947144 594.762756,382.644196 600.307129,370.575195 
	C597.064514,371.002594 594.742859,371.122253 592.511047,371.633820 
	C580.436584,374.401672 570.905823,381.644073 561.093384,388.426758 
	C560.874084,388.132874 560.654785,387.838989 560.552612,386.832001 
	C565.844177,373.660034 571.135681,360.488068 576.973572,345.955963 
	C559.967468,348.994629 548.142334,357.463074 537.792053,369.605469 
	C536.356995,371.223816 534.921875,372.842163 533.495850,374.502319 
	C533.495850,374.502319 533.525757,374.532867 532.978333,374.881470 
	C531.913208,376.565674 530.848083,378.249878 529.191406,380.315063 
	C527.678040,383.185791 526.164673,386.056519 524.141479,389.325165 
	C522.426819,391.571777 520.712158,393.818390 518.244751,396.007996 
	C506.228546,400.647125 494.966766,406.411591 486.343903,417.303131 
	C480.015259,424.941376 475.849792,433.533905 474.405396,443.912537 
	C474.367676,444.277344 474.329987,444.642181 474.053833,445.779388 
	C474.010529,446.851044 473.967255,447.922699 473.513885,449.694794 
	C473.654449,453.808594 473.795013,457.922363 473.736694,462.772797 
	C475.894867,470.238892 477.278137,478.043976 480.366364,485.103210 
	C487.650269,501.753174 501.382660,513.609985 513.238342,527.613403 
	C525.587891,543.892151 527.796570,561.509094 519.841614,580.667114 
	C522.283325,579.404602 524.108032,578.057129 525.790039,576.550476 
	C539.055847,564.667542 544.370789,541.229553 537.089600,526.024658 
	C533.916138,520.336243 530.742676,514.647827 527.244507,508.366364 
	C526.830994,508.217194 526.417480,508.068054 526.110779,507.997314 
	C526.110779,507.997314 526.190247,507.891235 526.086182,507.132233 
	C526.011841,505.113098 525.060059,502.337311 526.026978,501.216064 
	C528.985901,497.784790 532.682007,494.989227 536.687073,492.431335 
	C542.228516,495.523010 547.482666,499.426392 553.379578,501.513702 
	C561.953369,504.548523 569.848938,508.226532 576.277466,515.636841 
	C580.292542,521.377991 584.307617,527.119202 588.572388,533.531677 
	C592.945312,546.361694 606.414795,552.439575 618.821106,547.162354 
	C623.845154,545.025330 628.744934,542.539978 633.890076,540.758423 
	C640.129211,538.598083 642.543518,534.086548 643.142090,527.249817 
	C643.719055,524.499573 644.296021,521.749390 645.195862,518.275330 
	C646.140259,512.574585 648.549194,506.633636 642.263062,501.397980 
	C640.547363,499.009766 638.744568,496.678589 637.133545,494.221741 
	C633.483093,488.654388 629.927124,483.025085 626.332275,476.635590 
	C626.187683,476.421234 626.043030,476.206909 625.854553,475.472443 
M475.375977,392.252808 
	C471.871552,394.139587 468.367126,396.026367 464.416016,397.806976 
	C453.739319,399.319458 446.442810,406.631470 437.953552,413.047577 
	C436.982086,414.033569 436.010620,415.019562 434.996796,415.996399 
	C434.996796,415.996399 435.006378,416.038635 434.398193,416.303680 
	C430.959564,420.124908 427.289856,423.768799 424.170563,427.835022 
	C422.350616,430.207367 421.411102,433.255127 419.581024,436.464386 
	C418.106079,438.647247 416.293396,440.674866 415.207764,443.036652 
	C402.593628,470.478760 403.679840,498.210022 413.810669,526.040405 
	C414.793274,528.739868 416.419403,531.205017 417.746826,533.778870 
	C415.503174,516.286743 415.315277,499.204254 420.136353,482.469330 
	C423.116669,472.124115 427.290558,462.122772 431.435577,451.525757 
	C436.991608,443.187775 442.547638,434.849792 448.729126,426.173248 
	C454.210449,421.173340 459.691803,416.173401 465.748962,410.951355 
	C466.237305,410.316406 466.725677,409.681458 467.629517,409.060425 
	C467.629517,409.060425 468.025024,408.932220 468.549805,408.875183 
	C468.752380,408.591187 468.954926,408.307220 469.580261,407.909424 
	C469.860809,407.758301 470.019012,407.524414 470.780334,407.070679 
	C475.207489,404.452606 479.634644,401.834534 484.805725,399.108368 
	C494.931274,395.211334 505.056824,391.314331 514.482788,387.686554 
	C506.734161,384.973694 489.352753,386.852203 475.375977,392.252808 
M508.003265,544.997803 
	C508.003265,544.997803 507.972198,545.009705 507.818146,544.337952 
	C507.376251,543.641174 507.012024,542.877869 506.480957,542.257446 
	C496.446533,530.535217 485.967499,519.163330 476.451050,507.035797 
	C464.817291,492.209991 458.362091,475.259674 460.033142,456.075195 
	C460.717377,448.219971 462.550629,440.464813 463.811066,432.962341 
	C454.362274,439.408630 444.231140,462.332245 443.308929,479.909241 
	C440.859558,499.135101 446.606323,516.534058 455.710114,532.977966 
	C466.502869,552.472717 481.648773,567.497314 502.649506,575.889954 
	C504.122162,576.478394 506.267822,575.382812 508.669525,574.704834 
	C509.638550,572.155212 510.607574,569.605530 511.760254,566.459106 
	C511.758209,566.250977 511.756195,566.042847 512.161316,565.177979 
	C513.275085,557.942749 512.569702,551.084229 508.003265,544.997803 
M687.261780,595.833618 
	C685.961975,597.012268 683.996155,597.951294 683.471802,599.408936 
	C680.375793,608.014282 677.632507,616.746094 674.733643,625.423096 
	C673.347168,629.573486 671.879761,633.696777 670.449036,637.832336 
	C670.108582,637.805908 669.768066,637.779541 669.427612,637.753113 
	C665.850281,623.713989 662.272949,609.674805 658.803589,596.059326 
	C652.522034,596.059326 646.826111,596.059326 640.946838,596.059326 
	C647.497864,616.447388 653.848145,636.240051 660.239502,656.019592 
	C660.582092,657.079590 661.208435,658.850586 661.807739,658.895691 
	C665.943115,659.207214 670.190308,659.631042 674.212891,658.932373 
	C675.532349,658.703125 676.536865,655.337708 677.267517,653.259583 
	C681.415405,641.461853 685.436707,629.619690 689.981995,616.393250 
	C694.319214,628.974182 698.229614,640.221069 702.070740,651.491516 
	C704.784058,659.453003 704.744263,659.255005 713.358765,659.338440 
	C717.042480,659.374084 718.564331,658.049377 719.646423,654.655884 
	C724.497925,639.441528 729.617126,624.312561 734.642395,609.153625 
	C736.070557,604.845581 737.507507,600.540405 739.056885,595.883850 
	C734.732849,595.883850 731.056824,596.140625 727.433350,595.814026 
	C723.554382,595.464355 721.760071,596.822266 720.985962,600.710388 
	C719.525330,608.046936 717.613831,615.294800 715.840759,622.567627 
	C714.641785,627.485413 713.359131,632.382874 711.754761,638.704468 
	C707.419739,626.049438 703.640320,614.882507 699.765259,603.748962 
	C696.932007,595.608643 696.875916,595.628174 687.261780,595.833618 
M596.349060,614.654602 
	C590.289429,629.325562 584.229858,643.996521 577.970093,659.152283 
	C582.678284,659.152283 586.985107,659.363403 591.246460,659.016296 
	C592.436768,658.919373 593.989746,657.393005 594.532593,656.153015 
	C599.076721,645.773010 599.017456,645.747070 610.181152,645.697632 
	C611.180237,645.693237 612.179382,645.690979 613.178467,645.686401 
	C623.791016,645.637146 623.732605,645.663086 628.028320,655.294800 
	C628.700256,656.801392 630.083069,658.963684 631.303650,659.080200 
	C635.972900,659.526062 640.710205,659.260437 645.689758,659.260437 
	C637.993408,640.900879 630.586060,623.450989 623.365845,605.924011 
	C619.043640,595.432129 619.175171,595.378235 607.691406,595.682007 
	C607.358704,595.690857 606.937805,595.546631 606.707092,595.699158 
	C605.476196,596.513123 603.727356,597.138550 603.190613,598.304688 
	C600.828125,603.437073 598.820190,608.732666 596.349060,614.654602 
M318.311096,657.960327 
	C314.666382,658.021423 311.448486,657.288025 309.575592,652.811646 
	C310.202026,652.361755 311.120239,651.887695 311.802185,651.184570 
	C322.154022,640.511963 323.261536,620.440735 314.203308,608.279419 
	C305.822266,597.027222 287.045349,593.163452 273.888733,599.983765 
	C260.673798,606.834290 255.177139,623.334656 260.558472,639.999817 
	C265.184143,654.324829 278.661865,662.372559 295.016418,659.139282 
	C301.729645,657.812134 305.603455,659.974182 309.340271,664.525269 
	C309.551331,664.782349 309.789154,665.020020 309.978424,665.291931 
	C312.093719,668.330322 314.638275,667.568787 316.776276,665.636475 
	C318.869965,663.744141 322.754639,662.005188 318.311096,657.960327 
M437.936646,632.636719 
	C444.078674,640.306641 450.360229,647.870789 456.297333,655.696228 
	C458.844757,659.053894 461.622955,660.458801 465.904297,659.091370 
	C465.904297,638.759460 465.904297,618.349060 465.904297,597.791077 
	C463.061646,597.791077 460.532715,597.791077 457.296875,597.791077 
	C457.296875,612.493530 457.296875,626.809570 457.296875,642.230835 
	C445.630646,627.963684 434.620178,614.872681 424.109436,601.392090 
	C421.339447,597.839355 418.723755,597.227539 414.945862,598.146362 
	C414.945862,618.709412 414.945862,638.951599 414.945862,659.141907 
	C417.725800,659.141907 420.160706,659.141907 422.977112,659.141907 
	C422.977112,644.455994 422.977112,630.080444 422.977112,614.170898 
	C428.414520,620.878906 432.953369,626.478394 437.936646,632.636719 
M370.299683,605.619629 
	C370.183197,615.604187 370.237305,625.594482 369.897583,635.571472 
	C369.612640,643.941650 365.426544,649.590576 359.033264,651.076294 
	C347.838928,653.677612 339.587280,647.993958 338.985260,636.522461 
	C338.410187,625.565247 338.694122,614.563599 338.561523,603.581909 
	C338.536407,601.503662 338.328491,599.427673 338.202820,597.315369 
	C334.822449,597.315369 332.045319,597.315369 328.655426,597.315369 
	C328.655426,609.684204 328.421600,621.826416 328.710938,633.956116 
	C329.130859,651.558472 339.288727,660.703979 357.027771,659.924622 
	C369.410217,659.380737 378.749115,650.401306 379.176392,637.993958 
	C379.600006,625.692078 379.499908,613.371765 379.582062,601.059204 
	C379.589417,599.951355 379.248749,598.841064 379.082825,597.812988 
	C376.068359,597.812988 373.359070,597.812988 370.300903,597.812988 
	C370.300903,600.372009 370.300903,602.518372 370.299683,605.619629 
M530.998535,656.142700 
	C531.965942,657.271729 532.804749,659.190735 533.926270,659.373352 
	C536.674622,659.820862 539.553406,659.443420 542.379700,659.440369 
	C552.486694,659.429443 562.593750,659.436035 572.830811,659.436035 
	C572.830811,654.759705 572.830811,650.672180 572.830811,645.981079 
	C563.917175,645.981079 555.240967,645.981079 546.554688,645.981079 
	C546.554688,629.008301 546.554688,612.643494 546.554688,596.248230 
	C541.309143,596.248230 536.546997,596.248230 531.000977,596.248230 
	C531.000977,616.075500 531.000977,635.642944 530.998535,656.142700 
M497.486237,597.027954 
	C491.563904,597.027954 485.641602,597.027954 479.470184,597.027954 
	C479.470184,618.259766 479.470184,638.628418 479.470184,659.088623 
	C492.653656,659.088623 505.561340,659.088623 518.468506,659.088623 
	C518.468506,656.376526 518.468506,653.981079 518.468506,651.204163 
	C508.504639,651.204163 498.948608,651.204163 489.244629,651.204163 
	C489.244629,644.596985 489.244629,638.390198 489.244629,631.860962 
	C496.889221,631.860962 504.157196,631.860962 511.358795,631.860962 
	C512.565247,624.257568 512.565247,624.264404 505.371582,624.279541 
	C499.965759,624.290955 494.559906,624.281860 489.282440,624.281860 
	C489.282440,617.601135 489.282440,611.568115 489.282440,605.053406 
	C499.434814,605.053406 509.170441,605.053406 518.766846,605.053406 
	C518.766846,602.118469 518.766846,599.697693 518.766846,597.025574 
	C511.765808,597.025574 505.121796,597.025574 497.486237,597.027954 
M391.940460,655.232727 
	C392.244354,660.229309 392.395966,660.296814 400.988892,659.092163 
	C400.988892,638.788025 400.988892,618.443237 400.988892,597.887695 
	C397.978546,597.887695 395.227875,597.887695 391.940155,597.887695 
	C391.940155,616.842712 391.940155,635.564331 391.940460,655.232727 
z"/>
<path fill="#C2AC69" opacity="1.000000" stroke="none" 
	d="
M626.332764,477.420959 
	C629.927124,483.025085 633.483093,488.654388 637.133545,494.221741 
	C638.744568,496.678589 640.547363,499.009766 641.950439,501.716339 
	C640.320129,502.149384 638.748413,501.836304 637.723755,502.444672 
	C626.933228,508.851196 615.677673,505.140106 604.768127,503.575134 
	C593.769287,501.997345 583.251282,498.381287 573.717468,492.174988 
	C567.383911,488.051971 560.183228,485.211548 554.046814,480.846527 
	C543.924805,473.646423 533.913269,466.166290 524.658997,457.903870 
	C514.033020,448.416718 504.149231,438.127289 497.258514,425.293091 
	C495.517090,422.049652 491.779510,419.860138 488.877747,417.277893 
	C488.470276,416.915283 487.595581,417.077728 486.937164,416.997131 
	C494.966766,406.411591 506.228546,400.647125 518.687012,396.314423 
	C521.157654,399.238861 523.602600,401.633881 525.143494,404.512756 
	C532.600525,418.444794 542.471680,430.650909 552.023743,444.078705 
	C550.242188,444.736206 548.021851,445.555634 545.481323,446.249695 
	C540.281677,441.493988 535.402222,436.863617 529.982483,431.720551 
	C530.665955,434.466064 531.231018,436.738159 531.797241,439.010010 
	C533.847900,447.237701 538.424255,453.924316 546.714355,455.902252 
	C554.834167,457.839661 563.409241,457.869110 572.000366,458.975647 
	C573.571838,459.439240 575.196716,459.260132 576.237366,459.955414 
	C581.378052,463.389832 585.963806,467.971252 591.511108,470.396606 
	C597.748108,473.123535 604.742371,474.324951 611.524902,475.523682 
	C615.903198,476.297485 620.493164,475.873810 625.003296,475.998596 
	C625.018372,476.010376 625.050049,476.030579 625.242065,476.280212 
	C625.733704,476.826874 626.033203,477.123901 626.332764,477.420959 
z"/>
<path fill="#EEEFEE" opacity="1.000000" stroke="none" 
	d="
M687.672607,595.822021 
	C696.875916,595.628174 696.932007,595.608643 699.765259,603.748962 
	C703.640320,614.882507 707.419739,626.049438 711.754761,638.704468 
	C713.359131,632.382874 714.641785,627.485413 715.840759,622.567627 
	C717.613831,615.294800 719.525330,608.046936 720.985962,600.710388 
	C721.760071,596.822266 723.554382,595.464355 727.433350,595.814026 
	C731.056824,596.140625 734.732849,595.883850 739.056885,595.883850 
	C737.507507,600.540405 736.070557,604.845581 734.642395,609.153625 
	C729.617126,624.312561 724.497925,639.441528 719.646423,654.655884 
	C718.564331,658.049377 717.042480,659.374084 713.358765,659.338440 
	C704.744263,659.255005 704.784058,659.453003 702.070740,651.491516 
	C698.229614,640.221069 694.319214,628.974182 689.981995,616.393250 
	C685.436707,629.619690 681.415405,641.461853 677.267517,653.259583 
	C676.536865,655.337708 675.532349,658.703125 674.212891,658.932373 
	C670.190308,659.631042 665.943115,659.207214 661.807739,658.895691 
	C661.208435,658.850586 660.582092,657.079590 660.239502,656.019592 
	C653.848145,636.240051 647.497864,616.447388 640.946838,596.059326 
	C646.826111,596.059326 652.522034,596.059326 658.803589,596.059326 
	C662.272949,609.674805 665.850281,623.713989 669.427612,637.753113 
	C669.768066,637.779541 670.108582,637.805908 670.449036,637.832336 
	C671.879761,633.696777 673.347168,629.573486 674.733643,625.423096 
	C677.632507,616.746094 680.375793,608.014282 683.471802,599.408936 
	C683.996155,597.951294 685.961975,597.012268 687.672607,595.822021 
z"/>
<path fill="#9A6E37" opacity="1.000000" stroke="none" 
	d="
M508.100555,575.070251 
	C506.267822,575.382812 504.122162,576.478394 502.649506,575.889954 
	C481.648773,567.497314 466.502869,552.472717 455.710114,532.977966 
	C446.606323,516.534058 440.859558,499.135101 443.858765,479.407959 
	C445.579895,476.146240 446.751190,473.385803 447.958862,470.539642 
	C450.956299,472.622681 453.887909,474.577454 456.700287,476.690918 
	C457.202209,477.068115 457.604126,478.318329 457.350677,478.781708 
	C456.998718,479.425293 456.001282,479.739594 455.248291,480.134033 
	C454.301758,480.629883 452.862518,480.832031 452.481506,481.587433 
	C452.059906,482.423370 452.202881,484.243286 452.813354,484.718842 
	C453.533630,485.279907 455.029510,484.762390 456.168762,484.891663 
	C457.319092,485.022217 458.953369,484.984924 459.492493,485.693268 
	C461.777496,488.695526 464.224396,491.740326 465.674072,495.166534 
	C467.153656,498.663513 467.535858,502.624786 468.398499,506.382812 
	C468.728882,506.030273 469.059235,505.677734 469.389587,505.325195 
	C471.132355,506.332123 473.295563,506.970886 474.550995,508.404572 
	C484.080231,519.286926 493.387360,530.363586 502.888916,541.270691 
	C504.237244,542.818542 506.261047,543.777954 507.972198,545.009705 
	C507.972198,545.009705 508.003265,544.997803 508.004639,545.424927 
	C509.255432,552.513000 510.504791,559.173828 511.754150,565.834717 
	C511.756195,566.042847 511.758209,566.250977 511.333618,566.788269 
	C509.971497,569.768372 509.036011,572.419312 508.100555,575.070251 
z"/>
<path fill="#B69A5C" opacity="1.000000" stroke="none" 
	d="
M486.640533,417.150146 
	C487.595581,417.077728 488.470276,416.915283 488.877747,417.277893 
	C491.779510,419.860138 495.517090,422.049652 497.258514,425.293091 
	C504.149231,438.127289 514.033020,448.416718 524.658997,457.903870 
	C533.913269,466.166290 543.924805,473.646423 554.046814,480.846527 
	C560.183228,485.211548 567.383911,488.051971 573.717468,492.174988 
	C583.251282,498.381287 593.769287,501.997345 604.768127,503.575134 
	C615.677673,505.140106 626.933228,508.851196 637.723755,502.444672 
	C638.748413,501.836304 640.320129,502.149384 642.088135,502.054199 
	C648.549194,506.633636 646.140259,512.574585 644.680054,518.486084 
	C643.517578,514.764587 642.870850,510.832275 642.224182,506.899994 
	C641.328430,507.564697 641.146179,508.172943 641.028320,508.793427 
	C639.890015,514.786621 636.531860,516.448120 631.190430,513.968384 
	C629.951172,513.393005 628.217102,513.883484 627.971436,513.883484 
	C628.742249,519.242432 629.374023,523.634521 629.679565,528.023132 
	C629.135925,528.023010 628.918396,528.026428 628.663208,527.646667 
	C628.371765,525.816467 628.154236,524.361816 627.857605,522.923584 
	C626.825684,517.920227 624.161743,516.449036 618.606812,517.884399 
	C616.898682,517.201355 615.606018,516.375122 614.200684,516.073120 
	C604.575562,514.004639 594.887878,512.210876 585.308777,509.953461 
	C582.368103,509.260468 579.734253,507.323853 576.893921,506.111053 
	C576.050720,505.751007 574.982727,505.917236 573.639465,505.812958 
	C574.413208,508.211426 575.023132,509.900879 575.492004,511.628632 
	C575.789612,512.725342 575.877441,513.878967 576.059265,515.007080 
	C569.848938,508.226532 561.953369,504.548523 553.379578,501.513702 
	C547.482666,499.426392 542.228516,495.523010 536.440796,491.889130 
	C537.718445,490.446533 539.242432,489.546143 540.766479,488.645752 
	C541.031616,487.997070 541.296814,487.348389 541.562012,486.699707 
	C534.471497,489.156891 532.196045,484.465912 529.256958,480.711426 
	C528.878601,480.228180 528.064880,480.113342 527.554932,479.701416 
	C521.897034,475.131042 516.097107,470.718018 510.668976,465.887695 
	C506.551910,462.224030 503.394775,457.337555 498.951691,454.218506 
	C492.461914,449.662720 487.987427,443.752197 483.984772,437.184570 
	C483.078186,435.697052 481.398254,434.680847 480.065735,433.439728 
	C478.171631,437.801849 476.601715,441.417328 475.012329,445.014404 
	C474.992859,444.995972 474.953430,444.959625 474.924072,444.592407 
	C474.859436,443.982117 474.824158,443.739075 474.788910,443.496033 
	C475.849792,433.533905 480.015259,424.941376 486.640533,417.150146 
M622.550537,514.139526 
	C622.841797,514.084961 623.133057,514.030334 623.424316,513.975708 
	C623.135559,513.908813 622.846741,513.841980 622.550537,514.139526 
z"/>
<path fill="#EEEFEE" opacity="1.000000" stroke="none" 
	d="
M596.516418,614.311890 
	C598.820190,608.732666 600.828125,603.437073 603.190613,598.304688 
	C603.727356,597.138550 605.476196,596.513123 606.707092,595.699158 
	C606.937805,595.546631 607.358704,595.690857 607.691406,595.682007 
	C619.175171,595.378235 619.043640,595.432129 623.365845,605.924011 
	C630.586060,623.450989 637.993408,640.900879 645.689758,659.260437 
	C640.710205,659.260437 635.972900,659.526062 631.303650,659.080200 
	C630.083069,658.963684 628.700256,656.801392 628.028320,655.294800 
	C623.732605,645.663086 623.791016,645.637146 613.178467,645.686401 
	C612.179382,645.690979 611.180237,645.693237 610.181152,645.697632 
	C599.017456,645.747070 599.076721,645.773010 594.532593,656.153015 
	C593.989746,657.393005 592.436768,658.919373 591.246460,659.016296 
	C586.985107,659.363403 582.678284,659.152283 577.970093,659.152283 
	C584.229858,643.996521 590.289429,629.325562 596.516418,614.311890 
M608.507935,617.951599 
	C606.559875,623.432495 604.611877,628.913391 602.544373,634.730469 
	C608.787842,634.730469 614.052551,634.730469 619.882202,634.730469 
	C617.030640,626.704285 614.307190,619.038696 611.078369,609.950562 
	C610.028809,613.263855 609.401794,615.243347 608.507935,617.951599 
z"/>
<path fill="#E7EC9A" opacity="1.000000" stroke="none" 
	d="
M538.112549,368.990326 
	C548.142334,357.463074 559.967468,348.994629 576.973572,345.955963 
	C571.135681,360.488068 565.844177,373.660034 560.208496,387.485107 
	C559.960388,388.948120 560.056335,389.758087 560.152283,390.567993 
	C560.656067,390.167816 561.159851,389.767639 561.663635,389.367432 
	C570.905823,381.644073 580.436584,374.401672 592.511047,371.633820 
	C594.742859,371.122253 597.064514,371.002594 600.307129,370.575195 
	C594.762756,382.644196 589.570312,393.947144 584.306091,405.406311 
	C589.748840,414.537567 595.342468,423.921906 600.624512,433.595093 
	C598.135132,433.770142 595.957275,433.656311 594.378418,433.573792 
	C592.527649,431.983978 590.864746,430.455200 589.094543,429.062866 
	C587.283508,427.638458 585.066711,426.621490 583.547302,424.952850 
	C575.560913,416.181915 567.731567,407.267639 559.873718,398.380157 
	C559.226013,397.647614 558.548645,396.813721 558.264954,395.907928 
	C556.627502,390.680359 554.037720,385.830231 552.048828,380.835266 
	C549.921753,375.493591 544.338013,370.328461 549.178284,362.384552 
	C544.603577,365.115479 541.358032,367.052917 538.112549,368.990326 
z"/>
<path fill="#EEEFEE" opacity="1.000000" stroke="none" 
	d="
M318.670715,658.079651 
	C322.754639,662.005188 318.869965,663.744141 316.776276,665.636475 
	C314.638275,667.568787 312.093719,668.330322 309.978424,665.291931 
	C309.789154,665.020020 309.551331,664.782349 309.340271,664.525269 
	C305.603455,659.974182 301.729645,657.812134 295.016418,659.139282 
	C278.661865,662.372559 265.184143,654.324829 260.558472,639.999817 
	C255.177139,623.334656 260.673798,606.834290 273.888733,599.983765 
	C287.045349,593.163452 305.822266,597.027222 314.203308,608.279419 
	C323.261536,620.440735 322.154022,640.511963 311.802185,651.184570 
	C311.120239,651.887695 310.202026,652.361755 309.575592,652.811646 
	C311.448486,657.288025 314.666382,658.021423 318.670715,658.079651 
M309.299072,619.632019 
	C305.944580,609.570618 298.641113,604.453064 288.283630,604.906372 
	C278.471283,605.335815 271.268829,610.799988 269.500336,620.339722 
	C268.584534,625.279846 268.542908,630.689453 269.513672,635.609253 
	C271.664276,646.508545 280.092529,652.504822 290.756958,651.746094 
	C302.207092,650.931458 309.468018,643.853149 310.184601,632.337341 
	C310.429688,628.398560 309.793518,624.404968 309.299072,619.632019 
z"/>
<path fill="#EEEFEE" opacity="1.000000" stroke="none" 
	d="
M437.714447,632.357300 
	C432.953369,626.478394 428.414520,620.878906 422.977112,614.170898 
	C422.977112,630.080444 422.977112,644.455994 422.977112,659.141907 
	C420.160706,659.141907 417.725800,659.141907 414.945862,659.141907 
	C414.945862,638.951599 414.945862,618.709412 414.945862,598.146362 
	C418.723755,597.227539 421.339447,597.839355 424.109436,601.392090 
	C434.620178,614.872681 445.630646,627.963684 457.296875,642.230835 
	C457.296875,626.809570 457.296875,612.493530 457.296875,597.791077 
	C460.532715,597.791077 463.061646,597.791077 465.904297,597.791077 
	C465.904297,618.349060 465.904297,638.759460 465.904297,659.091370 
	C461.622955,660.458801 458.844757,659.053894 456.297333,655.696228 
	C450.360229,647.870789 444.078674,640.306641 437.714447,632.357300 
z"/>
<path fill="#A9834B" opacity="1.000000" stroke="none" 
	d="
M527.569214,508.959381 
	C530.742676,514.647827 533.916138,520.336243 537.008667,526.710144 
	C535.008789,527.627014 532.829712,528.562256 531.216431,527.966125 
	C524.737000,525.571899 518.432678,522.703552 511.428436,519.741821 
	C512.148987,522.847351 512.623718,524.893494 513.098450,526.939636 
	C501.382660,513.609985 487.650269,501.753174 480.366364,485.103210 
	C477.278137,478.043976 475.894867,470.238892 474.096436,462.495575 
	C475.341034,462.377533 476.225830,462.536713 476.799622,462.639923 
	C476.145844,460.358276 475.529877,458.208679 474.913940,456.059052 
	C479.497162,459.635681 483.071259,463.389160 486.668396,467.120453 
	C490.734741,471.338470 494.812073,475.545990 498.907257,479.735962 
	C499.814056,480.663788 500.760406,481.570068 501.783020,482.364685 
	C506.191833,485.790497 510.631134,489.177094 515.069153,492.565125 
	C516.896667,493.960175 518.568665,495.785553 520.632996,496.589874 
	C523.609741,497.749695 523.950989,499.504700 523.868591,502.366791 
	C523.816223,504.184509 525.361450,506.048187 526.190247,507.891235 
	C526.190247,507.891235 526.110779,507.997314 526.275879,508.188904 
	C526.817078,508.573486 527.193176,508.766449 527.569214,508.959381 
z"/>
<path fill="#CFC177" opacity="1.000000" stroke="none" 
	d="
M545.801514,446.375061 
	C548.021851,445.555634 550.242188,444.736206 552.023743,444.078705 
	C542.471680,430.650909 532.600525,418.444794 525.143494,404.512756 
	C523.602600,401.633881 521.157654,399.238861 519.063416,396.342957 
	C520.712158,393.818390 522.426819,391.571777 524.764038,389.015900 
	C528.640991,387.392853 530.530884,388.498291 532.118835,391.654938 
	C536.586670,400.536591 541.047241,409.452362 546.119995,417.992767 
	C555.694214,434.111725 569.922363,445.655945 585.419373,455.575806 
	C595.240356,461.862305 606.542053,463.305939 618.069275,462.881683 
	C620.201172,466.776703 622.333008,470.671722 624.727661,475.038330 
	C624.990417,475.509888 624.988220,475.986786 624.988220,475.986786 
	C620.493164,475.873810 615.903198,476.297485 611.524902,475.523682 
	C604.742371,474.324951 597.748108,473.123535 591.511108,470.396606 
	C585.963806,467.971252 581.378052,463.389832 576.237366,459.955414 
	C575.196716,459.260132 573.571838,459.439240 571.797241,458.718689 
	C570.361511,457.753571 569.343994,457.286926 568.328369,456.816254 
	C560.819214,453.336334 553.310425,449.855530 545.801514,446.375061 
M559.319458,450.150909 
	C558.255920,449.253693 557.192444,448.356476 556.128906,447.459259 
	C555.844116,447.898254 555.559326,448.337219 555.274536,448.776215 
	C556.481262,449.352722 557.687927,449.929260 559.319458,450.150909 
z"/>
<path fill="#E8E9EA" opacity="1.000000" stroke="none" 
	d="
M370.300293,605.142212 
	C370.300903,602.518372 370.300903,600.372009 370.300903,597.812988 
	C373.359070,597.812988 376.068359,597.812988 379.082825,597.812988 
	C379.248749,598.841064 379.589417,599.951355 379.582062,601.059204 
	C379.499908,613.371765 379.600006,625.692078 379.176392,637.993958 
	C378.749115,650.401306 369.410217,659.380737 357.027771,659.924622 
	C339.288727,660.703979 329.130859,651.558472 328.710938,633.956116 
	C328.421600,621.826416 328.655426,609.684204 328.655426,597.315369 
	C332.045319,597.315369 334.822449,597.315369 338.202820,597.315369 
	C338.328491,599.427673 338.536407,601.503662 338.561523,603.581909 
	C338.694122,614.563599 338.410187,625.565247 338.985260,636.522461 
	C339.587280,647.993958 347.838928,653.677612 359.033264,651.076294 
	C365.426544,649.590576 369.612640,643.941650 369.897583,635.571472 
	C370.237305,625.594482 370.183197,615.604187 370.300293,605.142212 
z"/>
<path fill="#D7CF81" opacity="1.000000" stroke="none" 
	d="
M618.006836,462.544922 
	C606.542053,463.305939 595.240356,461.862305 585.419373,455.575806 
	C569.922363,445.655945 555.694214,434.111725 546.119995,417.992767 
	C541.047241,409.452362 536.586670,400.536591 532.118835,391.654938 
	C530.530884,388.498291 528.640991,387.392853 525.018921,388.816956 
	C526.164673,386.056519 527.678040,383.185791 529.851013,380.084808 
	C531.515686,378.080658 532.520752,376.306763 533.525757,374.532898 
	C533.525757,374.532867 533.495850,374.502319 533.878235,374.656342 
	C536.139648,376.448792 538.580811,377.762604 539.760315,379.805023 
	C541.359558,382.574219 541.609863,386.103485 543.113342,388.950531 
	C547.110962,396.520355 551.176025,404.085754 555.756042,411.309357 
	C562.241272,421.537842 570.097717,430.576843 579.837769,438.016876 
	C588.103943,444.331085 597.687866,447.760193 607.015381,451.815674 
	C608.767029,452.577301 610.701416,452.918396 612.551514,453.453552 
	C612.551514,453.453552 612.452576,453.711609 612.438171,453.933258 
	C612.716553,454.410706 613.009399,454.666504 613.302185,454.922302 
	C614.849548,457.350922 616.396973,459.779541 618.006836,462.544922 
z"/>
<path fill="#EEEFEE" opacity="1.000000" stroke="none" 
	d="
M530.999756,655.676514 
	C531.000977,635.642944 531.000977,616.075500 531.000977,596.248230 
	C536.546997,596.248230 541.309143,596.248230 546.554688,596.248230 
	C546.554688,612.643494 546.554688,629.008301 546.554688,645.981079 
	C555.240967,645.981079 563.917175,645.981079 572.830811,645.981079 
	C572.830811,650.672180 572.830811,654.759705 572.830811,659.436035 
	C562.593750,659.436035 552.486694,659.429443 542.379700,659.440369 
	C539.553406,659.443420 536.674622,659.820862 533.926270,659.373352 
	C532.804749,659.190735 531.965942,657.271729 530.999756,655.676514 
z"/>
<path fill="#E8E9EA" opacity="1.000000" stroke="none" 
	d="
M497.981995,597.026733 
	C505.121796,597.025574 511.765808,597.025574 518.766846,597.025574 
	C518.766846,599.697693 518.766846,602.118469 518.766846,605.053406 
	C509.170441,605.053406 499.434814,605.053406 489.282440,605.053406 
	C489.282440,611.568115 489.282440,617.601135 489.282440,624.281860 
	C494.559906,624.281860 499.965759,624.290955 505.371582,624.279541 
	C512.565247,624.264404 512.565247,624.257568 511.358795,631.860962 
	C504.157196,631.860962 496.889221,631.860962 489.244629,631.860962 
	C489.244629,638.390198 489.244629,644.596985 489.244629,651.204163 
	C498.948608,651.204163 508.504639,651.204163 518.468506,651.204163 
	C518.468506,653.981079 518.468506,656.376526 518.468506,659.088623 
	C505.561340,659.088623 492.653656,659.088623 479.470184,659.088623 
	C479.470184,638.628418 479.470184,618.259766 479.470184,597.027954 
	C485.641602,597.027954 491.563904,597.027954 497.981995,597.026733 
z"/>
<path fill="#B08F53" opacity="1.000000" stroke="none" 
	d="
M526.138184,507.511719 
	C525.361450,506.048187 523.816223,504.184509 523.868591,502.366791 
	C523.950989,499.504700 523.609741,497.749695 520.632996,496.589874 
	C518.568665,495.785553 516.896667,493.960175 515.069153,492.565125 
	C510.631134,489.177094 506.191833,485.790497 501.783020,482.364685 
	C500.760406,481.570068 499.814056,480.663788 498.907257,479.735962 
	C494.812073,475.545990 490.734741,471.338470 486.668396,467.120453 
	C483.071259,463.389160 479.497162,459.635681 474.913940,456.059052 
	C475.529877,458.208679 476.145844,460.358276 476.799622,462.639923 
	C476.225830,462.536713 475.341034,462.377533 474.195892,462.127258 
	C473.795013,457.922363 473.654449,453.808594 473.961548,449.088440 
	C474.616730,447.332336 474.824249,446.182587 475.031799,445.032806 
	C476.601715,441.417328 478.171631,437.801849 480.065735,433.439728 
	C481.398254,434.680847 483.078186,435.697052 483.984772,437.184570 
	C487.987427,443.752197 492.461914,449.662720 498.951691,454.218506 
	C503.394775,457.337555 506.551910,462.224030 510.668976,465.887695 
	C516.097107,470.718018 521.897034,475.131042 527.554932,479.701416 
	C528.064880,480.113342 528.878601,480.228180 529.256958,480.711426 
	C532.196045,484.465912 534.471497,489.156891 541.562012,486.699707 
	C541.296814,487.348389 541.031616,487.997070 540.766479,488.645752 
	C539.242432,489.546143 537.718445,490.446533 536.142944,491.646667 
	C532.682007,494.989227 528.985901,497.784790 526.026978,501.216064 
	C525.060059,502.337311 526.011841,505.113098 526.138184,507.511719 
z"/>
<path fill="#DFDD8D" opacity="1.000000" stroke="none" 
	d="
M612.422729,453.138916 
	C610.701416,452.918396 608.767029,452.577301 607.015381,451.815674 
	C597.687866,447.760193 588.103943,444.331085 579.837769,438.016876 
	C570.097717,430.576843 562.241272,421.537842 555.756042,411.309357 
	C551.176025,404.085754 547.110962,396.520355 543.113342,388.950531 
	C541.609863,386.103485 541.359558,382.574219 539.760315,379.805023 
	C538.580811,377.762604 536.139648,376.448792 533.873718,374.635437 
	C534.921875,372.842163 536.356995,371.223816 537.952271,369.297913 
	C541.358032,367.052917 544.603577,365.115479 549.178284,362.384552 
	C544.338013,370.328461 549.921753,375.493591 552.048828,380.835266 
	C554.037720,385.830231 556.627502,390.680359 558.264954,395.907928 
	C558.548645,396.813721 559.226013,397.647614 559.873718,398.380157 
	C567.731567,407.267639 575.560913,416.181915 583.547302,424.952850 
	C585.066711,426.621490 587.283508,427.638458 589.094543,429.062866 
	C590.864746,430.455200 592.527649,431.983978 594.378418,433.573792 
	C595.957275,433.656311 598.135132,433.770142 600.682800,433.945862 
	C601.052612,434.007721 601.277954,434.118103 601.106445,434.599915 
	C600.848572,436.145447 600.762207,437.209198 600.675781,438.272888 
	C601.505493,438.098663 602.335205,437.924438 603.164917,437.750214 
	C606.207947,442.774902 609.250916,447.799591 612.422729,453.138916 
z"/>
<path fill="#9A6E37" opacity="1.000000" stroke="none" 
	d="
M430.928589,451.967072 
	C427.290558,462.122772 423.116669,472.124115 420.136353,482.469330 
	C415.315277,499.204254 415.503174,516.286743 417.746826,533.778870 
	C416.419403,531.205017 414.793274,528.739868 413.810669,526.040405 
	C403.679840,498.210022 402.593628,470.478760 415.207764,443.036652 
	C416.293396,440.674866 418.106079,438.647247 420.146545,436.138672 
	C422.058044,434.591522 423.403992,433.370117 424.749939,432.148682 
	C425.143341,432.389130 425.536774,432.629578 425.930206,432.870026 
	C425.421875,434.690491 424.683868,436.485260 424.476410,438.339386 
	C424.304230,439.878021 424.342804,442.642517 424.999298,442.877594 
	C429.443909,444.469055 429.635071,448.524506 430.928589,451.967072 
z"/>
<path fill="#A9834B" opacity="1.000000" stroke="none" 
	d="
M628.700928,528.029785 
	C628.918396,528.026428 629.135925,528.023010 629.922546,528.092651 
	C634.649170,524.940857 638.837402,524.351135 643.075378,528.018677 
	C642.543518,534.086548 640.129211,538.598083 633.890076,540.758423 
	C628.744934,542.539978 623.845154,545.025330 618.821106,547.162354 
	C606.414795,552.439575 592.945312,546.361694 588.620483,532.906189 
	C588.364319,529.807251 588.059998,527.333740 587.685974,524.294006 
	C591.855713,530.699280 599.455078,532.380920 605.744934,529.324524 
	C608.461182,528.004639 611.726013,527.664551 614.791809,527.253357 
	C618.162720,526.801270 621.591370,526.779480 625.214233,526.693542 
	C626.522705,527.221130 627.611816,527.625427 628.700928,528.029785 
z"/>
<path fill="#A07947" opacity="1.000000" stroke="none" 
	d="
M513.168396,527.276489 
	C512.623718,524.893494 512.148987,522.847351 511.428436,519.741821 
	C518.432678,522.703552 524.737000,525.571899 531.216431,527.966125 
	C532.829712,528.562256 535.008789,527.627014 537.020386,527.084961 
	C544.370789,541.229553 539.055847,564.667542 525.790039,576.550476 
	C524.108032,578.057129 522.283325,579.404602 519.841614,580.667114 
	C527.796570,561.509094 525.587891,543.892151 513.168396,527.276489 
z"/>
<path fill="#A07947" opacity="1.000000" stroke="none" 
	d="
M507.895172,544.673828 
	C506.261047,543.777954 504.237244,542.818542 502.888916,541.270691 
	C493.387360,530.363586 484.080231,519.286926 474.550995,508.404572 
	C473.295563,506.970886 471.132355,506.332123 469.389587,505.325195 
	C469.059235,505.677734 468.728882,506.030273 468.398499,506.382812 
	C467.535858,502.624786 467.153656,498.663513 465.674072,495.166534 
	C464.224396,491.740326 461.777496,488.695526 459.492493,485.693268 
	C458.953369,484.984924 457.319092,485.022217 456.168762,484.891663 
	C455.029510,484.762390 453.533630,485.279907 452.813354,484.718842 
	C452.202881,484.243286 452.059906,482.423370 452.481506,481.587433 
	C452.862518,480.832031 454.301758,480.629883 455.248291,480.134033 
	C456.001282,479.739594 456.998718,479.425293 457.350677,478.781708 
	C457.604126,478.318329 457.202209,477.068115 456.700287,476.690918 
	C453.887909,474.577454 450.956299,472.622681 447.958862,470.539642 
	C446.751190,473.385803 445.579895,476.146240 444.027344,479.037842 
	C444.231140,462.332245 454.362274,439.408630 463.811066,432.962341 
	C462.550629,440.464813 460.717377,448.219971 460.033142,456.075195 
	C458.362091,475.259674 464.817291,492.209991 476.451050,507.035797 
	C485.967499,519.163330 496.446533,530.535217 506.480957,542.257446 
	C507.012024,542.877869 507.376251,543.641174 507.895172,544.673828 
z"/>
<path fill="#B08F53" opacity="1.000000" stroke="none" 
	d="
M624.994812,526.570251 
	C621.591370,526.779480 618.162720,526.801270 614.791809,527.253357 
	C611.726013,527.664551 608.461182,528.004639 605.744934,529.324524 
	C599.455078,532.380920 591.855713,530.699280 587.685974,524.294006 
	C588.059998,527.333740 588.364319,529.807251 588.495667,532.570557 
	C584.307617,527.119202 580.292542,521.377991 576.168335,515.321960 
	C575.877441,513.878967 575.789612,512.725342 575.492004,511.628632 
	C575.023132,509.900879 574.413208,508.211426 573.639465,505.812958 
	C574.982727,505.917236 576.050720,505.751007 576.893921,506.111053 
	C579.734253,507.323853 582.368103,509.260468 585.308777,509.953461 
	C594.887878,512.210876 604.575562,514.004639 614.200684,516.073120 
	C615.606018,516.375122 616.898682,517.201355 618.726196,518.209351 
	C621.137512,521.279236 623.066162,523.924744 624.994812,526.570251 
z"/>
<path fill="#EEEFEE" opacity="1.000000" stroke="none" 
	d="
M391.940308,654.759338 
	C391.940155,635.564331 391.940155,616.842712 391.940155,597.887695 
	C395.227875,597.887695 397.978546,597.887695 400.988892,597.887695 
	C400.988892,618.443237 400.988892,638.788025 400.988892,659.092163 
	C392.395966,660.296814 392.244354,660.229309 391.940308,654.759338 
z"/>
<path fill="#A07947" opacity="1.000000" stroke="none" 
	d="
M431.182098,451.746399 
	C429.635071,448.524506 429.443909,444.469055 424.999298,442.877594 
	C424.342804,442.642517 424.304230,439.878021 424.476410,438.339386 
	C424.683868,436.485260 425.421875,434.690491 425.930206,432.870026 
	C425.536774,432.629578 425.143341,432.389130 424.749939,432.148682 
	C423.403992,433.370117 422.058044,434.591522 420.393799,435.905975 
	C421.411102,433.255127 422.350616,430.207367 424.170563,427.835022 
	C427.289856,423.768799 430.959564,420.124908 434.751465,416.247833 
	C435.104706,416.191986 435.318604,416.204468 435.318604,416.204468 
	C435.318604,416.204468 435.039154,416.005524 435.039154,416.005524 
	C436.010620,415.019562 436.982086,414.033569 438.674866,412.989258 
	C442.398041,412.098541 445.399841,411.266174 449.637360,410.091156 
	C447.475189,414.505615 441.910248,418.478363 449.244995,420.829468 
	C448.804871,423.020813 448.454254,424.766296 448.103668,426.511810 
	C442.547638,434.849792 436.991608,443.187775 431.182098,451.746399 
z"/>
<path fill="#A9834B" opacity="1.000000" stroke="none" 
	d="
M448.416382,426.342529 
	C448.454254,424.766296 448.804871,423.020813 449.244995,420.829468 
	C441.910248,418.478363 447.475189,414.505615 449.637360,410.091156 
	C445.399841,411.266174 442.398041,412.098541 438.964905,412.911560 
	C446.442810,406.631470 453.739319,399.319458 464.856567,398.081726 
	C466.251190,400.112305 467.210083,401.865570 468.157532,403.624939 
	C468.798279,404.814758 469.422974,406.013184 470.054871,407.207764 
	C470.019012,407.524414 469.860809,407.758301 469.151123,408.080475 
	C468.432709,408.420135 468.200378,408.647034 468.025024,408.932220 
	C468.025024,408.932220 467.629517,409.060425 467.124390,409.071686 
	C466.137238,409.779816 465.655182,410.476654 465.173126,411.173492 
	C459.691803,416.173401 454.210449,421.173340 448.416382,426.342529 
z"/>
<path fill="#B69A5C" opacity="1.000000" stroke="none" 
	d="
M470.417603,407.139221 
	C469.422974,406.013184 468.798279,404.814758 468.157532,403.624939 
	C467.210083,401.865570 466.251190,400.112305 465.079926,398.134796 
	C468.367126,396.026367 471.871552,394.139587 476.055511,392.427795 
	C480.017517,391.933411 483.276123,391.033264 486.592346,390.690155 
	C488.299988,390.513458 490.110229,391.328491 492.135559,391.749756 
	C488.867645,394.771942 486.464691,396.994171 484.061768,399.216431 
	C479.634644,401.834534 475.207489,404.452606 470.417603,407.139221 
z"/>
<path fill="#B08F53" opacity="1.000000" stroke="none" 
	d="
M643.108765,527.634277 
	C638.837402,524.351135 634.649170,524.940857 630.248779,528.096069 
	C629.374023,523.634521 628.742249,519.242432 627.971436,513.883484 
	C628.217102,513.883484 629.951172,513.393005 631.190430,513.968384 
	C636.531860,516.448120 639.890015,514.786621 641.028320,508.793427 
	C641.146179,508.172943 641.328430,507.564697 642.224182,506.899994 
	C642.870850,510.832275 643.517578,514.764587 644.518616,518.848022 
	C644.296021,521.749390 643.719055,524.499573 643.108765,527.634277 
z"/>
<path fill="#C2AC69" opacity="1.000000" stroke="none" 
	d="
M484.433746,399.162415 
	C486.464691,396.994171 488.867645,394.771942 492.135559,391.749756 
	C490.110229,391.328491 488.299988,390.513458 486.592346,390.690155 
	C483.276123,391.033264 480.017517,391.933411 476.435303,392.432465 
	C489.352753,386.852203 506.734161,384.973694 514.482788,387.686554 
	C505.056824,391.314331 494.931274,395.211334 484.433746,399.162415 
z"/>
<path fill="#A07947" opacity="1.000000" stroke="none" 
	d="
M511.957733,565.506348 
	C510.504791,559.173828 509.255432,552.513000 507.997498,545.440125 
	C512.569702,551.084229 513.275085,557.942749 511.957733,565.506348 
z"/>
<path fill="#A07947" opacity="1.000000" stroke="none" 
	d="
M508.385040,574.887573 
	C509.036011,572.419312 509.971497,569.768372 511.241760,567.086670 
	C510.607574,569.605530 509.638550,572.155212 508.385040,574.887573 
z"/>
<path fill="#DFDD8D" opacity="1.000000" stroke="none" 
	d="
M533.252075,374.707184 
	C532.520752,376.306763 531.515686,378.080658 530.146790,379.894348 
	C530.848083,378.249878 531.913208,376.565674 533.252075,374.707184 
z"/>
<path fill="#E7EC9A" opacity="1.000000" stroke="none" 
	d="
M603.093872,437.425842 
	C602.335205,437.924438 601.505493,438.098663 600.675781,438.272888 
	C600.762207,437.209198 600.848572,436.145447 601.069641,434.719879 
	C601.810425,435.272522 602.416626,436.186981 603.093872,437.425842 
z"/>
<path fill="#B69A5C" opacity="1.000000" stroke="none" 
	d="
M465.461060,411.062439 
	C465.655182,410.476654 466.137238,409.779816 466.916626,409.064728 
	C466.725677,409.681458 466.237305,410.316406 465.461060,411.062439 
z"/>
<path fill="#B69A5C" opacity="1.000000" stroke="none" 
	d="
M475.012329,445.014404 
	C474.824249,446.182587 474.616730,447.332336 474.166565,448.738220 
	C473.967255,447.922699 474.010529,446.851044 474.338806,445.388794 
	C474.623810,444.998199 474.953430,444.959625 474.953430,444.959625 
	C474.953430,444.959625 474.992859,444.995972 475.012329,445.014404 
z"/>
<path fill="#DFDD8D" opacity="1.000000" stroke="none" 
	d="
M613.230225,454.613708 
	C613.009399,454.666504 612.716553,454.410706 612.310608,453.880066 
	C612.517761,453.838531 612.838013,454.071838 613.230225,454.613708 
z"/>
<path fill="#B08F53" opacity="1.000000" stroke="none" 
	d="
M474.924072,444.592407 
	C474.953430,444.959625 474.623810,444.998199 474.458069,445.002594 
	C474.329987,444.642181 474.367676,444.277344 474.597168,443.704285 
	C474.824158,443.739075 474.859436,443.982117 474.924072,444.592407 
z"/>
<path fill="#C2AC69" opacity="1.000000" stroke="none" 
	d="
M625.003296,475.998596 
	C624.988220,475.986786 624.990417,475.509888 624.997070,475.271851 
	C625.287292,475.180054 625.570923,475.326233 625.664795,475.748993 
	C625.474976,476.025543 625.050049,476.030579 625.050049,476.030579 
	C625.050049,476.030579 625.018372,476.010376 625.003296,475.998596 
z"/>
<path fill="#CFC177" opacity="1.000000" stroke="none" 
	d="
M625.242065,476.280212 
	C625.050049,476.030579 625.474976,476.025543 625.686707,476.009094 
	C626.043030,476.206909 626.187683,476.421234 626.332520,477.028259 
	C626.033203,477.123901 625.733704,476.826874 625.242065,476.280212 
z"/>
<path fill="#B69A5C" opacity="1.000000" stroke="none" 
	d="
M468.287415,408.903687 
	C468.200378,408.647034 468.432709,408.420135 468.939697,408.137390 
	C468.954926,408.307220 468.752380,408.591187 468.287415,408.903687 
z"/>
<path fill="#B08F53" opacity="1.000000" stroke="none" 
	d="
M527.406860,508.662872 
	C527.193176,508.766449 526.817078,508.573486 526.222534,508.149719 
	C526.417480,508.068054 526.830994,508.217194 527.406860,508.662872 
z"/>
<path fill="#1D2331" opacity="1.000000" stroke="none" 
	d="
M545.481323,446.249695 
	C553.310425,449.855530 560.819214,453.336334 568.328369,456.816254 
	C569.343994,457.286926 570.361511,457.753571 571.581299,458.479065 
	C563.409241,457.869110 554.834167,457.839661 546.714355,455.902252 
	C538.424255,453.924316 533.847900,447.237701 531.797241,439.010010 
	C531.231018,436.738159 530.665955,434.466064 529.982483,431.720551 
	C535.402222,436.863617 540.281677,441.493988 545.481323,446.249695 
z"/>
<path fill="#1D2331" opacity="1.000000" stroke="none" 
	d="
M625.214233,526.693542 
	C623.066162,523.924744 621.137512,521.279236 619.089478,518.308777 
	C624.161743,516.449036 626.825684,517.920227 627.857605,522.923584 
	C628.154236,524.361816 628.371765,525.816467 628.663208,527.646667 
	C627.611816,527.625427 626.522705,527.221130 625.214233,526.693542 
z"/>
<path fill="#B08F53" opacity="1.000000" stroke="none" 
	d="
M622.554260,513.957336 
	C622.846741,513.841980 623.135559,513.908813 623.424316,513.975708 
	C623.133057,514.030334 622.841797,514.084961 622.554260,513.957336 
z"/>
<path fill="#1D2331" opacity="1.000000" stroke="none" 
	d="
M608.641357,617.587219 
	C609.401794,615.243347 610.028809,613.263855 611.078369,609.950562 
	C614.307190,619.038696 617.030640,626.704285 619.882202,634.730469 
	C614.052551,634.730469 608.787842,634.730469 602.544373,634.730469 
	C604.611877,628.913391 606.559875,623.432495 608.641357,617.587219 
z"/>
<path fill="#1D2331" opacity="1.000000" stroke="none" 
	d="
M561.378540,388.897095 
	C561.159851,389.767639 560.656067,390.167816 560.152283,390.567993 
	C560.056335,389.758087 559.960388,388.948120 560.149902,387.841644 
	C560.654785,387.838989 560.874084,388.132874 561.378540,388.897095 
z"/>
<path fill="#1D2331" opacity="1.000000" stroke="none" 
	d="
M309.429565,620.034241 
	C309.793518,624.404968 310.429688,628.398560 310.184601,632.337341 
	C309.468018,643.853149 302.207092,650.931458 290.756958,651.746094 
	C280.092529,652.504822 271.664276,646.508545 269.513672,635.609253 
	C268.542908,630.689453 268.584534,625.279846 269.500336,620.339722 
	C271.268829,610.799988 278.471283,605.335815 288.283630,604.906372 
	C298.641113,604.453064 305.944580,609.570618 309.429565,620.034241 
z"/>
<path fill="#C2AC69" opacity="1.000000" stroke="none" 
	d="
M559.107056,450.328369 
	C557.687927,449.929260 556.481262,449.352722 555.274536,448.776215 
	C555.559326,448.337219 555.844116,447.898254 556.128906,447.459259 
	C557.192444,448.356476 558.255920,449.253693 559.107056,450.328369 
z"/>
<path fill="#A9834B" opacity="1.000000" stroke="none" 
	d="
M435.017975,416.000977 
	C435.039154,416.005524 435.318604,416.204468 435.318604,416.204468 
	C435.318604,416.204468 435.104706,416.191986 435.055542,416.115295 
	C435.006378,416.038635 434.996796,415.996399 435.017975,416.000977 
z"/>
</svg>